<?xml version="1.0" standalone="no"?>
<!DOCTYPE svg PUBLIC "-//W3C//DTD SVG 20010904//EN"
 "http://www.w3.org/TR/2001/REC-SVG-20010904/DTD/svg10.dtd">
<svg version="1.0" xmlns="http://www.w3.org/2000/svg"
 width="512.000000pt" height="512.000000pt" viewBox="0 0 512.000000 512.000000"
 preserveAspectRatio="xMidYMid meet">
<metadata>
Created by potrace 1.16, written by Peter Selinger 2001-2019
</metadata>
<g transform="translate(0.000000,512.000000) scale(0.100000,-0.100000)"
fill="#ffff" stroke="none">
<path d="M155 4928 c-82 -30 -135 -106 -135 -194 0 -56 26 -119 61 -151 13
-12 134 -72 268 -134 142 -66 249 -122 257 -134 7 -11 132 -544 279 -1185 302
-1322 288 -1274 408 -1386 73 -69 140 -107 222 -129 86 -22 2710 -23 2794 0
137 36 270 143 329 265 26 52 76 251 243 970 223 953 234 1015 209 1129 -42
195 -208 360 -400 401 -41 8 -460 10 -1602 8 l-1546 -3 -43 -30 c-76 -54 -107
-154 -75 -239 21 -54 81 -111 133 -125 26 -8 512 -11 1541 -11 1651 0 1544 4
1577 -60 8 -16 15 -39 15 -51 0 -33 -410 -1789 -423 -1809 -5 -10 -23 -25 -38
-34 -25 -14 -147 -16 -1319 -16 -1270 0 -1292 0 -1320 20 -15 11 -32 32 -38
47 -6 16 -124 523 -262 1128 -138 605 -260 1133 -271 1173 -27 100 -59 160
-124 230 -63 68 -103 91 -410 233 -210 96 -265 111 -330 87z"/>
<path d="M1902 1196 c-225 -55 -392 -268 -392 -501 0 -214 141 -412 346 -486
80 -30 244 -32 324 -5 300 101 442 433 308 716 -42 88 -150 196 -238 237 -112
53 -234 66 -348 39z m223 -350 c99 -76 110 -193 26 -277 -64 -64 -150 -74
-222 -26 -65 44 -98 119 -85 193 8 41 67 111 111 131 48 21 127 12 170 -21z"/>
<path d="M3670 1194 c-197 -52 -346 -215 -380 -416 -58 -338 239 -640 581
-590 355 51 546 436 376 756 -106 199 -357 308 -577 250z m229 -347 c137 -91
87 -307 -77 -333 -84 -13 -178 48 -201 133 -13 47 -13 49 -1 95 33 119 176
173 279 105z"/>
</g>
</svg>
