<?xml version="1.0" standalone="no"?>
<!DOCTYPE svg PUBLIC "-//W3C//DTD SVG 20010904//EN"
 "http://www.w3.org/TR/2001/REC-SVG-20010904/DTD/svg10.dtd">
<svg version="1.0" xmlns="http://www.w3.org/2000/svg"
 width="512.000000pt" height="512.000000pt" viewBox="0 0 512.000000 512.000000"
 preserveAspectRatio="xMidYMid meet">
<metadata>
Created by potrace 1.16, written by Peter Selinger 2001-2019
</metadata>
<g transform="translate(0.000000,512.000000) scale(0.100000,-0.100000)"
fill="#000000" stroke="none">
<path d="M1944 4706 c-17 -7 -39 -25 -50 -38 -10 -14 -140 -302 -288 -641
l-269 -617 -506 0 c-546 0 -578 -3 -664 -53 -61 -36 -122 -108 -147 -173 -40
-109 -42 -100 236 -1312 140 -614 263 -1150 273 -1189 33 -127 91 -201 201
-252 l55 -26 1775 0 1775 0 55 26 c110 51 168 125 201 252 10 39 133 575 273
1189 278 1212 276 1203 236 1312 -25 65 -86 137 -147 173 -86 50 -118 53 -664
53 l-505 0 -274 625 c-212 487 -279 631 -302 650 -50 42 -140 46 -193 8 -38
-28 -69 -97 -61 -141 3 -20 114 -284 246 -586 132 -302 240 -551 240 -553 0
-2 -396 -3 -881 -3 -701 0 -880 3 -876 13 3 6 111 255 241 552 130 297 239
557 242 577 8 45 -23 113 -63 142 -34 25 -117 31 -159 12z m-760 -1643 c-9
-21 -21 -59 -27 -84 -9 -40 -7 -52 11 -90 28 -55 62 -80 118 -87 99 -11 134
19 204 177 l53 121 1017 0 1017 0 53 -121 c70 -158 105 -188 204 -177 56 7 90
32 118 87 18 38 20 50 11 90 -6 25 -18 63 -27 84 l-16 37 426 0 c274 0 432 -4
445 -10 11 -6 19 -21 19 -36 0 -48 -522 -2309 -538 -2326 -14 -17 -108 -18
-1712 -18 -1604 0 -1698 1 -1712 18 -15 17 -538 2278 -538 2326 0 14 8 30 18
35 11 7 173 11 445 11 l427 0 -16 -37z"/>
<path d="M1593 2440 c-25 -11 -51 -33 -63 -52 -19 -32 -20 -49 -20 -633 0
-581 1 -601 20 -633 59 -96 201 -96 260 0 19 32 20 52 20 633 0 584 -1 601
-20 633 -22 35 -88 72 -130 72 -14 0 -44 -9 -67 -20z"/>
<path d="M2493 2440 c-25 -11 -51 -33 -63 -52 -19 -32 -20 -49 -20 -633 0
-581 1 -601 20 -633 59 -96 201 -96 260 0 19 32 20 52 20 633 0 584 -1 601
-20 633 -22 35 -88 72 -130 72 -14 0 -44 -9 -67 -20z"/>
<path d="M3393 2440 c-25 -11 -51 -33 -63 -52 -19 -32 -20 -49 -20 -633 0
-581 1 -601 20 -633 59 -96 201 -96 260 0 19 32 20 52 20 633 0 584 -1 601
-20 633 -22 35 -88 72 -130 72 -14 0 -44 -9 -67 -20z"/>
</g>
</svg>
