<?xml version="1.0" standalone="no"?>
<!DOCTYPE svg PUBLIC "-//W3C//DTD SVG 20010904//EN"
 "http://www.w3.org/TR/2001/REC-SVG-20010904/DTD/svg10.dtd">
<svg version="1.0" xmlns="http://www.w3.org/2000/svg"
 width="512.000000pt" height="512.000000pt" viewBox="0 0 512.000000 512.000000"
 preserveAspectRatio="xMidYMid meet">

<g transform="translate(0.000000,512.000000) scale(0.100000,-0.100000)"
fill="#ffff" stroke="none">
<path d="M4730 4766 c-30 -13 -158 -75 -285 -138 -126 -63 -258 -128 -292
-143 l-63 -28 -69 31 c-390 174 -872 86 -1184 -217 -245 -237 -377 -542 -394
-909 l-6 -133 -46 6 c-717 95 -1314 502 -1678 1145 -48 83 -82 112 -142 118
-64 6 -103 -10 -141 -58 -43 -54 -107 -177 -135 -260 -28 -82 -55 -249 -55
-336 1 -126 42 -317 94 -431 15 -31 24 -58 22 -60 -2 -3 -43 7 -89 21 -101 31
-140 32 -187 7 -37 -19 -80 -88 -80 -127 0 -13 9 -63 20 -111 87 -371 302
-657 637 -848 l75 -43 -53 -15 c-30 -9 -74 -21 -98 -27 -60 -16 -83 -33 -109
-79 -53 -95 -16 -165 167 -310 203 -161 448 -284 729 -365 62 -18 113 -36 113
-40 0 -13 -110 -85 -200 -131 -110 -56 -242 -99 -385 -126 -90 -17 -162 -22
-381 -26 -308 -5 -339 -10 -380 -71 -30 -44 -33 -107 -9 -158 18 -38 105 -110
201 -168 262 -157 803 -315 1268 -370 670 -80 1304 -7 1795 207 279 122 488
266 707 488 433 442 685 939 780 1539 25 161 25 560 -1 748 l-18 132 123 196
c67 108 126 211 132 229 22 72 -18 149 -94 179 -35 14 -55 15 -141 6 -55 -5
-118 -10 -139 -10 l-39 0 125 250 c68 137 127 266 130 287 9 57 -27 122 -85
151 -55 27 -71 27 -140 -2z"/>
</g>
</svg>
