<?xml version="1.0" standalone="no"?>
<!DOCTYPE svg PUBLIC "-//W3C//DTD SVG 20010904//EN"
 "http://www.w3.org/TR/2001/REC-SVG-20010904/DTD/svg10.dtd">
<svg version="1.0" xmlns="http://www.w3.org/2000/svg"
 width="512.000000pt" height="512.000000pt" viewBox="0 0 512.000000 512.000000"
 preserveAspectRatio="xMidYMid meet">
<metadata>
Created by potrace 1.16, written by Peter Selinger 2001-2019
</metadata>
<g transform="translate(0.000000,512.000000) scale(0.100000,-0.100000)"
fill="#ffff" stroke="none">
<path d="M2320 5105 c-447 -82 -818 -361 -1023 -771 -38 -75 -92 -237 -113
-339 -27 -127 -27 -413 0 -540 61 -292 196 -536 410 -743 400 -387 999 -496
1518 -277 417 176 735 569 823 1016 23 117 30 326 16 443 -42 330 -191 622
-435 853 -194 184 -451 312 -720 358 -110 19 -371 19 -476 0z m465 -484 c375
-98 651 -416 694 -802 19 -173 -9 -330 -89 -495 -120 -248 -324 -418 -596
-496 -67 -19 -103 -23 -234 -23 -131 0 -167 4 -234 23 -200 58 -364 165 -488
321 -67 84 -149 245 -173 341 -133 524 201 1043 738 1146 98 19 279 11 382
-15z"/>
<path d="M2383 2010 c-885 -63 -1671 -588 -2068 -1380 -129 -256 -166 -393
-131 -483 20 -54 68 -104 121 -128 38 -18 132 -19 2258 -19 2167 0 2219 0
2255 19 53 27 99 77 118 128 36 92 -4 233 -142 504 -286 563 -792 1007 -1389
1219 -310 110 -700 163 -1022 140z m411 -485 c638 -75 1205 -448 1530 -1007
l28 -48 -1792 0 -1792 0 28 48 c252 434 649 757 1124 916 287 95 578 126 874
91z"/>
</g>
</svg>
