<?xml version="1.0" standalone="no"?>
<!DOCTYPE svg PUBLIC "-//W3C//DTD SVG 20010904//EN"
 "http://www.w3.org/TR/2001/REC-SVG-20010904/DTD/svg10.dtd">
<svg version="1.0" xmlns="http://www.w3.org/2000/svg"
 width="512.000000pt" height="512.000000pt" viewBox="0 0 512.000000 512.000000"
 preserveAspectRatio="xMidYMid meet">
<metadata>
Created by potrace 1.16, written by Peter Selinger 2001-2019
</metadata>
<g transform="translate(0.000000,512.000000) scale(0.100000,-0.100000)"
fill="#000000" stroke="none">
<path d="M3288 4620 c-176 -37 -325 -102 -471 -208 -90 -64 -215 -192 -270
-275 -119 -178 -187 -393 -187 -588 l0 -78 -37 6 c-579 82 -1134 365 -1533
780 -52 54 -114 119 -138 145 -48 53 -96 73 -155 65 -78 -11 -132 -77 -196
-242 -61 -155 -76 -243 -75 -430 1 -178 21 -279 83 -424 17 -40 31 -77 31 -81
0 -4 -11 -11 -24 -14 -33 -8 -83 -68 -96 -116 -12 -45 0 -199 24 -304 45 -193
162 -400 305 -540 l50 -49 -20 -36 c-38 -72 -14 -177 78 -336 62 -108 116
-176 210 -266 92 -88 148 -128 258 -186 l79 -41 -58 -26 c-87 -38 -264 -93
-385 -118 -93 -20 -138 -22 -372 -23 -262 -1 -266 -1 -298 -25 -37 -26 -71
-90 -71 -135 0 -56 35 -112 92 -148 364 -233 812 -386 1280 -436 145 -16 501
-13 658 4 971 112 1785 652 2250 1495 222 401 360 918 360 1350 l0 95 83 86
c192 200 316 431 348 649 14 98 6 154 -28 198 -57 76 -136 81 -263 17 -119
-60 -214 -85 -320 -85 -112 0 -155 13 -213 66 -140 126 -338 221 -539 259
-112 21 -328 19 -440 -5z m427 -331 c140 -34 243 -91 366 -204 72 -67 119 -87
243 -106 73 -12 305 -7 340 7 18 7 17 4 -4 -35 -45 -78 -149 -199 -229 -266
-54 -44 -83 -76 -90 -98 -5 -18 -12 -126 -14 -242 -6 -235 -21 -354 -73 -565
-114 -462 -349 -876 -688 -1215 -419 -418 -944 -670 -1545 -740 -147 -18 -467
-20 -602 -5 -169 19 -370 60 -509 104 -51 16 -52 15 82 50 243 63 511 191 714
341 54 41 75 63 88 96 31 77 1 171 -66 205 -18 9 -71 21 -118 26 -144 14 -265
53 -377 119 -62 37 -232 193 -222 204 4 3 38 11 75 16 176 24 244 74 244 179
0 92 -50 147 -155 174 -192 48 -364 162 -471 312 -44 62 -120 211 -112 219 3
3 29 0 59 -5 30 -6 93 -12 140 -13 76 -2 90 1 121 23 45 30 66 66 74 122 10
70 -12 106 -114 187 -182 146 -281 314 -312 530 -12 78 -9 183 6 259 l7 32 81
-77 c204 -196 507 -401 766 -520 347 -160 723 -256 1050 -269 125 -5 138 -4
168 15 57 37 74 75 68 156 -25 310 -17 386 58 539 82 168 208 293 381 376 196
95 373 117 570 69z"/>
</g>
</svg>
