<?xml version="1.0" standalone="no"?>
<!DOCTYPE svg PUBLIC "-//W3C//DTD SVG 20010904//EN"
 "http://www.w3.org/TR/2001/REC-SVG-20010904/DTD/svg10.dtd">
<svg version="1.0" xmlns="http://www.w3.org/2000/svg"
 width="1500.000000pt" height="1000.000000pt" viewBox="0 0 1500.000000 1000.000000"
 preserveAspectRatio="xMidYMid meet">

<g transform="translate(0.000000,1000.000000) scale(0.100000,-0.100000)"
fill="#ffff" stroke="none">
<path d="M234 9040 c-41 -16 -66 -61 -61 -105 5 -33 16 -49 64 -93 129 -118
394 -306 608 -431 160 -94 562 -294 742 -370 637 -268 1351 -442 2268 -556
539 -66 779 -85 1195 -92 l335 -6 1 -146 c0 -116 5 -162 22 -223 65 -237 187
-415 388 -566 184 -139 468 -238 779 -272 277 -30 842 -34 1420 -10 292 13
663 12 805 0 154 -14 395 -54 544 -89 598 -144 1285 -412 1720 -671 243 -145
404 -273 567 -453 148 -162 230 -273 541 -732 157 -231 349 -512 428 -625 187
-267 422 -619 497 -745 185 -311 364 -678 478 -980 40 -108 70 -145 115 -145
18 0 39 -11 58 -30 17 -16 40 -30 51 -30 16 0 21 -6 21 -25 0 -25 0 -25 -32
-9 -47 24 -197 129 -312 219 -86 68 -105 78 -140 78 -71 0 -117 -77 -85 -145
23 -51 404 -325 491 -354 99 -33 178 -17 231 46 51 60 58 143 31 382 -19 173
-33 212 -87 240 -35 17 -45 19 -79 9 -43 -13 -78 -58 -78 -100 0 -13 -3 -22
-6 -18 -3 3 -39 81 -79 174 -136 316 -250 537 -418 818 -72 119 -355 541 -523
780 -129 182 -224 322 -459 670 -281 417 -389 556 -573 742 -356 358 -911 658
-1717 929 -706 237 -1126 300 -1820 272 -435 -17 -1391 -17 -1540 0 -330 39
-563 121 -736 260 -196 157 -302 368 -303 597 0 55 3 116 7 136 l7 36 73 7
c95 10 317 51 442 82 334 84 619 236 750 401 96 120 140 241 133 362 -6 94
-31 154 -94 221 -68 73 -136 103 -246 108 -75 4 -100 0 -175 -23 -377 -117
-827 -510 -994 -868 l-44 -95 -95 -8 c-172 -13 -629 6 -1010 41 -870 82 -1654
232 -2235 428 -629 212 -1244 533 -1638 854 -177 144 -179 145 -233 123z
m6486 -673 c85 -45 101 -133 45 -251 -86 -181 -339 -332 -715 -426 -130 -33
-360 -74 -368 -66 -3 3 12 34 33 68 173 284 516 571 799 669 99 35 149 36 206
6z"/>
</g>
</svg>
