<?xml version="1.0" standalone="no"?>
<!DOCTYPE svg PUBLIC "-//W3C//DTD SVG 20010904//EN"
 "http://www.w3.org/TR/2001/REC-SVG-20010904/DTD/svg10.dtd">
<svg version="1.0" xmlns="http://www.w3.org/2000/svg"
 width="512.000000pt" height="512.000000pt" viewBox="0 0 512.000000 512.000000"
 preserveAspectRatio="xMidYMid meet">
<metadata>
Created by potrace 1.16, written by Peter Selinger 2001-2019
</metadata>
<g transform="translate(0.000000,512.000000) scale(0.100000,-0.100000)"
fill="#ffff" stroke="none">
<path d="M3865 5104 c-38 -8 -105 -30 -148 -49 -238 -102 -390 -255 -492 -492
-71 -166 -86 -377 -39 -562 14 -57 24 -104 22 -105 -2 -2 -333 -202 -737 -445
l-733 -441 -60 55 c-115 106 -248 181 -393 221 -56 15 -103 19 -230 19 -181
-1 -236 -12 -371 -75 -207 -96 -348 -237 -444 -444 -64 -136 -75 -189 -75
-376 0 -187 11 -240 75 -376 96 -207 237 -348 444 -444 118 -56 184 -71 333
-77 291 -12 516 81 712 293 l66 73 420 -215 c231 -119 547 -280 701 -360 l281
-144 -19 -82 c-17 -69 -19 -106 -15 -218 6 -152 21 -216 77 -336 96 -207 237
-348 444 -444 136 -64 189 -75 376 -75 187 0 240 11 376 75 207 96 348 237
444 444 64 136 75 189 75 376 0 187 -11 240 -75 376 -96 207 -237 348 -444
444 -44 21 -108 46 -141 55 -82 23 -298 31 -388 15 -200 -36 -378 -134 -514
-284 l-58 -65 -695 356 c-382 195 -699 359 -703 363 -5 4 -1 43 8 85 26 114
17 311 -18 420 -15 43 -25 80 -24 80 1 1 332 200 736 443 l734 441 63 -59
c118 -110 252 -186 399 -226 98 -27 360 -27 455 0 84 23 211 83 287 134 165
112 303 309 360 512 25 93 25 367 0 460 -57 203 -195 400 -360 512 -74 50
-202 111 -282 133 -86 24 -337 30 -430 9z"/>
</g>
</svg>
